<?xml version="1.0" encoding="UTF-8"?><svg xmlns="http://www.w3.org/2000/svg" viewBox="0 0 300 300" x="0px" y="0px" width="300px" height="300px" version="1.1" xmlns:xlink="http://www.w3.org/1999/xlink"><title>Investment Colored Icons</title><g id="Layer_2" data-name="Layer 2"><path d="M77.64,195.09,54.49,196.7l.42,46.73,25.79-.86v-5.46l104.81.27s36.13-7.66,38.17-10.59,1.15-14.81-5.87-15.7-35.62,8.17-35.62,8.17-1-13.92-4.08-13.92c0,0,27.57-9.57,36.51-31.66s21.15-64.38-9-91.28-54.13-33.36-97.7-15S65.77,149.38,79.85,171.6s27.75,28.76,27.75,28.76l-15.15,4.43L81,204.45Z" style="fill:#2a94f4;"/><path d="M80.45,204.32s14.17.89,17.23,0,18.38-6.64,32.81-5.87,13.53,3.32,26.3,5.36,16.47-.51,21.44,3.7,6.51,6.26,5.62,8a5.24,5.24,0,0,0-.64,3.07S204.79,212,210.79,211s12.83-1,14,4.47,1.43,11.87-12.35,15.57-29.36,7-29.36,7l-102.64.64Z" style="fill:#ffe3ca;"/><path d="M96.11,191.17s11.57-7.49,9-16S94.66,160.11,90,159.77s-9.53,5.36-9.53,5.36l-1.19,7.32Z" style="fill:#cce9ff;"/><path d="M80.06,100.79s-.78,13.15,12.32,14.3,17.3-.39,24.07,7.91a95,95,0,0,1,10.46,16.34,6.79,6.79,0,0,1,1.79,4.21c0,2,.39,3.74.39,6.66s.38,2.53,1.4,5.73a28.83,28.83,0,0,0,5.49,8.93c1.4,1.41,2.68,2.56,4.47,4.09a24.24,24.24,0,0,0,5.1,3.57,14.16,14.16,0,0,1,4.45,2.93,31.64,31.64,0,0,0,6.66,4.35,16,16,0,0,0,4.72,1.15c1.15,0,3.19,0,3.83-1.15s.64-1.41,1.66-5.11-1.78,2.56,1.66-6.89,3.58-10.34,4.73-11.75,2.93-3.57,3.44-6.06,2.17-2.49.51-6.19-1.91-4.6-5.49-7.28-2.93-2.93-8.29-5.36-6.64-2.94-11.24-2.94-10.79-.76-12.54-1.53-2.78-.25-4.56-1.79-2.94-1.53-5.37-5.74-3.19-5-3.19-7.79.9-5.1,1.53-7.78-.25-3.2,2.56-5,2.93-1.79,4.72-1.79,1.4,0,3.57,1,2.3,1.79,4.47,1.41,4-5.11,4-5.11-.64-16.6-.89-20.17a22.85,22.85,0,0,0-2-7.79c-.89-2.3-2-7-2-7s2.55-2.43-1.79-3.06-4.72-1.79-10.21-.13S98.16,70.14,96,72,83.38,89.17,83.38,89.17Z" style="fill:#cce9ff;"/><path d="M196.28,73.55s-5.45,15.49,2,34.56,12.08,22.8,16.68,28.76,7,9,8,7.83,2.38-6.3,2.89-7.83,2.9-6.26,2.11-11.67-20.83-39.73-21-40.41S196.28,73.55,196.28,73.55Z" style="fill:#cce9ff;"/></g><g id="Layer_1" data-name="Layer 1"><path d="M54.23,246.79H80.05a3.22,3.22,0,0,0,3.22-3.22v-3.23H186.52a3.39,3.39,0,0,0,.78-.09L219,232.33a12.52,12.52,0,0,0-6.26-24.25l-26.2,7v-.53a12.77,12.77,0,0,0-3.1-8.29,80.31,80.31,0,0,0,43.71-57.93c0-.05,0-.09.05-.15s0-.27,0-.41q.51-3,.81-6c0-.36.08-.71.11-1.06.19-2.26.32-4.55.32-6.86,0-1.47,0-2.92-.12-4.37,0-.52-.08-1-.11-1.54-.07-.92-.14-1.84-.24-2.76-.07-.64-.16-1.29-.25-1.93s-.19-1.51-.32-2.26-.26-1.48-.39-2.21-.24-1.25-.38-1.86c-.17-.83-.36-1.66-.57-2.48-.12-.48-.24-1-.37-1.43-.24-.93-.5-1.86-.79-2.78-.09-.3-.19-.59-.28-.89A80.31,80.31,0,0,0,199.48,72l-.52-.45c-.24-.2-.47-.41-.72-.61a2.26,2.26,0,0,0-.26-.16A80.27,80.27,0,0,0,147.8,53.21c-.79,0-1.56,0-2.35,0h-.07a81.14,81.14,0,0,0-14.81,1.82l-1.47.32c-.92.21-1.83.45-2.75.7-.72.2-1.45.4-2.17.62l-1.4.46A79.87,79.87,0,0,0,85.65,82.49l-.16.2c-.78,1-1.54,1.91-2.26,2.91-.13.16-.24.34-.37.51q-1.5,2-2.88,4.19c-.5.79-1,1.57-1.48,2.37-.14.24-.3.46-.44.7,0,.06,0,.12-.07.18a80.3,80.3,0,0,0-2.08,76.74,2.56,2.56,0,0,0,.12.32c.32.61.69,1.19,1,1.8.55,1,1.11,2,1.7,3s1,1.69,1.57,2.52c.68,1,1.39,2.05,2.12,3.06.48.67.94,1.36,1.44,2q1.8,2.34,3.77,4.54c.47.52,1,1,1.44,1.54,1,1.11,2.14,2.21,3.25,3.27.26.25.5.53.76.77a1.74,1.74,0,0,0,.18.11,79.07,79.07,0,0,0,8.34,6.72l-5.89,1.69H83.27v-6.45a3.23,3.23,0,0,0-3.22-3.23H54.23A3.23,3.23,0,0,0,51,195.17v48.4a3.22,3.22,0,0,0,3.22,3.22Zm144-167.32a74.3,74.3,0,0,1,21.46,35.87v0c.3,1.16.57,2.34.81,3.52,0,.18.06.35.1.53.2,1,.4,2.06.55,3.11.07.39.11.79.16,1.19.11.84.23,1.67.32,2.52.07.68.11,1.37.16,2.06s.11,1.14.13,1.72c.07,1.27.11,2.56.11,3.85,0,1.75-.07,3.49-.19,5.22a44.76,44.76,0,0,0-6.1-5.9,38.88,38.88,0,0,1-13.37-20.83L198.5,97a39,39,0,0,1-.29-17.5Zm-113.87,16c.64-1,1.29-2,2-3,.56-.84,1.16-1.66,1.76-2.48l.39-.54A74.63,74.63,0,0,1,122.1,64.25l.48-.17c.93-.34,1.87-.65,2.81-1l1.5-.44c.69-.21,1.38-.41,2.08-.6a76.12,76.12,0,0,1,12.63-2.15h0a15.73,15.73,0,0,0,.14,2.91L144.37,81a8.89,8.89,0,0,1,0,2.47l-1.58,12.69a.76.76,0,0,1-1.41.29,7.22,7.22,0,0,0-12.64.49l-3.35,6.71a15.69,15.69,0,0,0,.58,15.17l3,5a15.7,15.7,0,0,0,11.56,7.52l16.61,2.07a9.4,9.4,0,0,1,4.26,1.67l8,5.67a9.3,9.3,0,0,1,1.17,14.14,15.73,15.73,0,0,0-4.14,7.32l-3.3,13.17a3.22,3.22,0,0,1-5,1.83l-22.59-16.44a9.35,9.35,0,0,1-3.84-7.52v-9.65a15.78,15.78,0,0,0-2.08-7.82l-8.06-14.09a15.78,15.78,0,0,0-12.11-7.86l-15.9-1.59a9.25,9.25,0,0,1-8.3-8.1l-1.06-8.46a3.31,3.31,0,0,0,.18-.29ZM96.1,187a3.31,3.31,0,0,1-.33-.32c-.83-.82-1.61-1.68-2.41-2.53q-1.47-1.59-2.84-3.26c-.51-.63-1-1.23-1.53-1.87-.66-.87-1.29-1.78-1.91-2.68-.36-.5-.72-1-1.06-1.5-.6-.91-1.16-1.84-1.72-2.77-.33-.54-.65-1.08-1-1.63s-.46-.87-.7-1.29l3.17-5.28a3.21,3.21,0,0,1,4.54-1l7.37,4.91a11,11,0,0,1-1.61,19.24Zm5.1,4.52a17.44,17.44,0,0,0,.09-29.13l-7.37-4.91a9.68,9.68,0,0,0-13.67,3.08l-1,1.64A73.92,73.92,0,0,1,79,106a15.62,15.62,0,0,0,13.85,12.7l15.9,1.59a9.35,9.35,0,0,1,7.15,4.64L124,139a9.38,9.38,0,0,1,1.21,4.63v9.65A15.77,15.77,0,0,0,131.7,166l22.59,16.43A9.67,9.67,0,0,0,169.37,177l3.29-13.17a9.35,9.35,0,0,1,2.45-4.32,15.75,15.75,0,0,0-2-23.95l-8-5.7A15.8,15.8,0,0,0,158,127L141.35,125a9.26,9.26,0,0,1-6.82-4.44l-3-5a9.23,9.23,0,0,1-.35-8.94l3.36-6.72a.73.73,0,0,1,.64-.42.8.8,0,0,1,.69.37A7.21,7.21,0,0,0,149.21,97l1.59-12.68a16,16,0,0,0,0-4.2l-2.6-18.19a9.49,9.49,0,0,1,0-2.26,73.8,73.8,0,0,1,44.52,15.12l-.67,3a45.27,45.27,0,0,0,.28,20.74l3.84,15.39a45.43,45.43,0,0,0,15.59,24.31,38.38,38.38,0,0,1,8,8.75l.86,1.29a73.88,73.88,0,0,1-43.64,53.84,12.82,12.82,0,0,0-3.32-.49H157.93l-14.39-4.11a61.21,61.21,0,0,0-33.42,0l-.3.09a74.48,74.48,0,0,1-8.62-6ZM83.27,208.08H96.18a3.36,3.36,0,0,0,.89-.13l14.84-4.24a54.72,54.72,0,0,1,29.87,0L156.62,208a3.58,3.58,0,0,0,.86.13h16.13a6.45,6.45,0,1,1,0,12.9H141.35v6.46h32.26a12.93,12.93,0,0,0,10.17-5l30.6-8.16a6.07,6.07,0,1,1,3,11.75l-31.29,7.83H83.27ZM57.46,198.4H76.82v41.94H57.46Zm0,0" style="fill:#0b4870;"/><path d="M73.34,232.66a3.14,3.14,0,0,0-.29-.58l-.39-.48-.49-.39a2.42,2.42,0,0,0-.58-.29,2,2,0,0,0-.58-.19,3,3,0,0,0-1.87.19,3.49,3.49,0,0,0-1.06.68,4.54,4.54,0,0,0-.39.48,2.62,2.62,0,0,0-.29.58,2.08,2.08,0,0,0-.19.58,4.78,4.78,0,0,0-.07.65,3.18,3.18,0,0,0,.26,1.22,2.9,2.9,0,0,0,1.74,1.75,3.22,3.22,0,0,0,1.23.25,3.47,3.47,0,0,0,.64-.06,2,2,0,0,0,.58-.19,2.42,2.42,0,0,0,.58-.29,4.66,4.66,0,0,0,.49-.39,3.38,3.38,0,0,0,.93-2.29,3.57,3.57,0,0,0-.06-.65,2.46,2.46,0,0,0-.19-.58Zm0,0" style="fill:#0b4870;"/></g></svg>