<?xml version="1.0" encoding="UTF-8"?><svg xmlns="http://www.w3.org/2000/svg" viewBox="0 0 300 300" x="0px" y="0px" width="300px" height="300px" xmlns:xlink="http://www.w3.org/1999/xlink" version="1.1"><title>Investment Colored Icons</title><g id="Layer_2" data-name="Layer 2"><path d="M239.76,102.27s-23.24-9.06-40.73-8.8-68.17,19.4-89.36,19.78-44.94-.51-49.79-2.68-6.51,3.83-6.51,3.83l-.25,82.47v34.34s14.68,9.45,37.27,9.32,64-13.28,74.64-16.47,38-9.57,53.53-4.59,20.56,12,20.3,2S239.76,102.27,239.76,102.27Z" style="fill:#2a94f4;"/><path d="M64.8,169.36s8.55,5.87,10.53,10.21,7.15,8.88,11.87,8.62,34.73-4.08,46.85-8.62a263.25,263.25,0,0,1,44.75-11.48c12.57-1.86,25.47-1.86,29.1-2.24s5.49.7,6.83-3.45,6.39-8.42,8.81-8l2.43.38-1.47-33s-3.51.2-7.15-4.21-4.08-10.34-11.55-10.91-31.47,2.17-47.94,8.29-38.87,10.35-43.34,10.6S85,128.32,82.67,128.32s-4.21,6.38-9.77,8.62-7.4,3.42-7.21,10.26S64.8,169.36,64.8,169.36Z" style="fill:#cce9ff;"/></g><g id="Layer_1" data-name="Layer 1"><path d="M240.18,99.94C208.06,82.15,176,92,144.89,101.54s-60.57,18.61-90.31,2.13a3.2,3.2,0,0,0-4.75,2.81V231a3.2,3.2,0,0,0,1.65,2.8,78.39,78.39,0,0,0,38.9,9.88c19,0,37.89-5.79,56.39-11.48,31.15-9.56,60.57-18.6,90.31-2.13a3.19,3.19,0,0,0,4.75-2.81V102.74a3.21,3.21,0,0,0-1.65-2.8Zm-4.75,95.91c-30.44-14.35-60.58-5.18-87.34,3L150,205c26.42-8.09,56.3-17.18,85.46-2v5.91a77.87,77.87,0,0,0-31.92-7.43l-.16,6.4a71.62,71.62,0,0,1,32.08,8.18V222c-30.54-14.4-61-5-90.54,4-30.57,9.4-59.48,18.27-88.66,3v-6a78,78,0,0,0,31.92,7.44l.16-6.4a71.62,71.62,0,0,1-32.08-8.21V210a79.23,79.23,0,0,0,34.37,7.5c18.47,0,36.37-5.48,53-10.55l-1.88-6.12c-31.89,9.76-58.53,16-85.46,2v-5.9h0q2.68,1.26,5.36,2.27c.55.21,1.09.38,1.64.58,1.24.44,2.48.86,3.72,1.23.67.2,1.33.38,2,.56,1.13.3,2.26.59,3.39.84l2.07.43q1.69.31,3.39.57c.66.1,1.32.2,2,.28,1.23.16,2.46.27,3.69.36.55,0,1.09.11,1.64.14,1.74.1,3.48.16,5.22.16h.05c2.19,0,4.38-.09,6.56-.24.64,0,1.28-.11,1.92-.17,1.57-.13,3.13-.28,4.69-.48l2.18-.29c1.56-.22,3.12-.48,4.67-.75l1.89-.32c4.35-.83,8.68-1.84,13-3l1.92-.51,4.69-1.28,2.15-.62,4.71-1.39,1.8-.54,6.19-1.89,5.71-1.75c1.3-.4,2.59-.78,3.88-1.16l1.82-.55,3.45-1c.75-.22,1.5-.44,2.24-.64l3.28-.88,2.38-.64c1.06-.27,2.11-.51,3.17-.76.83-.2,1.65-.41,2.48-.6,1-.23,2.07-.44,3.1-.64.84-.17,1.67-.36,2.5-.52,1-.19,2-.35,3.07-.52.84-.14,1.68-.3,2.53-.43,1-.14,2-.25,3-.37.85-.11,1.71-.23,2.56-.32s2-.15,3-.22,1.72-.13,2.58-.17,1.95,0,2.92-.05,1.75,0,2.62,0,1.92.09,2.88.15,1.77.09,2.65.17,1.9.22,2.85.34,1.78.23,2.68.38,1.88.36,2.81.56,1.81.37,2.71.59,1.86.52,2.78.79,1.84.54,2.75.85,1.83.67,2.74,1,1.86.71,2.79,1.12,1.8.84,2.7,1.28c.68.32,1.35.66,2,1Zm0-13.15c-.22-.11-.44-.18-.64-.28-.9-.41-1.79-.77-2.69-1.14-1.06-.44-2.13-.9-3.2-1.28-.89-.32-1.79-.6-2.68-.9-1.07-.34-2.14-.68-3.2-1-.9-.24-1.79-.45-2.68-.66-1.07-.25-2.15-.5-3.2-.71-.89-.17-1.78-.32-2.66-.45-1.08-.17-2.16-.32-3.23-.45-.88-.1-1.76-.18-2.64-.25-1.08-.09-2.16-.17-3.24-.21-.88,0-1.75-.07-2.62-.08h-3.26c-.87,0-1.73,0-2.59.08-1.1,0-2.19.11-3.29.2-.85.06-1.7.13-2.56.22-1.1.11-2.21.24-3.31.38l-2.52.32c-1.12.17-2.24.36-3.35.55-.82.14-1.64.28-2.46.44-1.14.21-2.27.45-3.4.69-.8.17-1.6.32-2.4.51-1.16.26-2.31.54-3.46.82l-2.33.57c-1.19.3-2.37.62-3.55.94l-2.22.6c-1.24.34-2.48.7-3.71,1.06-.68.19-1.37.38-2,.59-1.4.4-2.8.83-4.19,1.25l-1.53.45-5.66,1.74-5.8,1.77-.42.13-5.3,1.6-1.46.42c-1.42.41-2.82.82-4.23,1.21-.64.18-1.25.32-1.87.5-1.27.35-2.53.69-3.79,1-.69.18-1.38.32-2.07.51-1.19.29-2.38.58-3.57.85-.74.17-1.48.32-2.22.47-1.13.24-2.26.49-3.38.7-.79.15-1.57.27-2.35.4-1.08.19-2.16.38-3.24.54-.81.12-1.6.2-2.42.31-1,.13-2.1.27-3.15.37-.83.08-1.66.13-2.49.19-1,.07-2,.15-3.06.2-.85,0-1.69,0-2.54,0-1,0-2,0-3,0s-1.71-.08-2.56-.13-2-.09-3-.18-1.74-.21-2.61-.32-1.94-.24-2.91-.41-1.76-.34-2.64-.52S73,196,72,195.73s-1.77-.5-2.65-.76-1.92-.56-2.86-.88-1.79-.66-2.68-1S61.93,192.36,61,192s-1.79-.84-2.68-1.28c-.68-.32-1.35-.67-2-1V111.71c30.54,14.4,61,5,90.54-4,30.53-9.39,59.44-18.25,88.62-3Zm0,0" style="fill:#0b4870;"/><path d="M144.89,114.66c-21.68,6.66-44.11,13.54-65.8,10.42a3.21,3.21,0,0,0-3.67,3.16,7.78,7.78,0,0,1-2.88,6.4,6.08,6.08,0,0,1-5.69.64,3.23,3.23,0,0,0-2.89.44,3.19,3.19,0,0,0-1.33,2.61v32.76a3.2,3.2,0,0,0,2.19,3,14.85,14.85,0,0,1,10.61,13.09,3.21,3.21,0,0,0,2.74,3.17,85.29,85.29,0,0,0,12.16.84c19,0,38-5.82,56.43-11.48h0c21.68-6.66,44.09-13.53,65.78-10.42a3.08,3.08,0,0,0,2.55-.74,3.2,3.2,0,0,0,1.11-2.43,7.81,7.81,0,0,1,2.89-6.4,6.15,6.15,0,0,1,5.7-.64,3.2,3.2,0,0,0,4.21-3V123.32a3.2,3.2,0,0,0-2.19-3,14.85,14.85,0,0,1-10.61-13.09,3.21,3.21,0,0,0-2.74-3.17c-23.11-3.34-46.24,3.77-68.6,10.64Zm-63.3,69.71A21.37,21.37,0,0,0,69,168.91v-26.8a12,12,0,0,0,7.24-2.27,13.55,13.55,0,0,0,5.16-8c16.23,1.67,32.44-1.56,48.36-6a46.3,46.3,0,0,0-9.56,27.89c0,10.28,3.64,18.85,10,23.51.28.21.59.36.88.55-16.48,4.73-33.21,8.38-49.51,6.6Zm63.28-10.73A11.75,11.75,0,0,1,134,172.06c-4.62-3.39-7.38-10.25-7.38-18.35,0-14.67,9-29.44,20.16-32.94a13.52,13.52,0,0,1,4.09-.66,11.23,11.23,0,0,1,6.77,2.24c4.62,3.38,7.38,10.25,7.38,18.35,0,14.67-9,29.44-20.16,32.94Zm65.2-63.6a21.37,21.37,0,0,0,12.56,15.46v26.8a11.88,11.88,0,0,0-7.25,2.27,13.55,13.55,0,0,0-5.15,8c-16.24-1.67-32.44,1.55-48.36,6a46.36,46.36,0,0,0,9.56-27.89c0-10.29-3.64-18.85-10-23.51-.28-.21-.57-.37-.86-.56,16.46-4.73,33.17-8.38,49.49-6.59Zm0,0" style="fill:#0b4870;"/><path d="M146.77,137.16a2,2,0,0,1,1.73.08,1.84,1.84,0,0,1,.53,1.46h6.4a8.05,8.05,0,0,0-3.13-6.6,7.56,7.56,0,0,0-3.27-1.36v-3.2h-6.4v4.52a12.79,12.79,0,0,0-6.4,10.54,8.07,8.07,0,0,0,3.13,6.61,8.28,8.28,0,0,0,7.41,1,2,2,0,0,1,1.73.08,1.86,1.86,0,0,1,.53,1.46,6.28,6.28,0,0,1-4.14,5.46,2,2,0,0,1-1.73-.08,1.81,1.81,0,0,1-.53-1.46h-6.4a8.05,8.05,0,0,0,3.13,6.6,7.68,7.68,0,0,0,3.27,1.36v3.2H149v-4.54a12.76,12.76,0,0,0,6.4-10.54,8.07,8.07,0,0,0-3.13-6.61,8.28,8.28,0,0,0-7.41-1.05,2,2,0,0,1-1.73-.08,1.82,1.82,0,0,1-.53-1.45,6.31,6.31,0,0,1,4.14-5.45Zm0,0" style="fill:#0b4870;"/><path d="M94.49,224.06l.28,6.4c17.48-.78,35-6.18,52-11.39,16.59-5.09,33.74-10.36,50.4-11.11l-.28-6.4c-17.48.78-35,6.17-52,11.39-16.6,5.09-33.75,10.36-50.41,11.11Zm0,0" style="fill:#0b4870;"/></g></svg>