<?xml version="1.0" encoding="UTF-8"?><svg xmlns="http://www.w3.org/2000/svg" viewBox="0 0 300 300" x="0px" y="0px" width="300px" height="300px" version="1.1" xmlns:xlink="http://www.w3.org/1999/xlink"><title>Investment Colored Icons</title><g id="Layer_1" data-name="Layer 1"><path d="M85.51,267.7H213.17V229.15S231.3,232,239,223.66a47.74,47.74,0,0,0,10.22-18.77S258,190,260.66,180s5.74-25.15,5.74-25.15-56.81-3.19-63.06-.9-12.51,16.22-12.51,16.22l-20.56.76H165l.78-13s16.34-7.53,20.93-17.1,5.49-21.71,13.66-21.71,13.15-5,9.07-8.17c0,0-4.6-6-8.56-6s-6.76-3.85-6.76-3.85,2-30.25-11.37-33.44-30.89-3.19-32.42-3.19-39.32-1.92-42.13,8.8-5.1,38.17-5.1,38.17L97,105.83l-9.45,2.68s-5.87,6.38,2,9.83,9.07,2.54,10.09,3,4,.58,4.21,1.86,4.6,23.49,14.17,29.36,15.83,10.6,15.83,10.6-5.62,6.38-7.53,6.63-10.47.13-14,.26-10.85-15.83-20.56-16-62.42,2.56-62.42,2.56,8.81,19.27,10.47,24.63S42,196.47,42,196.47l11.87,7.27s-6.26,4.21-6.26,4.85.64,4.6.64,4.6,6.26,15.19,16.21,15.32,18.51.13,18.51.13Z" style="fill:#2a94f4;"/><path d="M192.23,96.76s-14.3,1-20.42-4.21-14.48-6.38-15-6-37,8-45.42,6-8.68-11.49-5.87-16.85,12.77-11.36,25.79-12.13,35.36.89,35.74.76,14,3.07,15.7,4,3.83,4.73,5,6.9,3.83,12.64,3.83,12.64Z" style="fill:#cce9ff;"/><path d="M190.06,167.49s4.72-13.79,11.87-14.05,42.13-.12,43.66,0,9.19,0,12.77.51,5.49.39,6.64,1.41a7,7,0,0,1,2.68,5.74c0,3.19,2.55,1.54-1.28,6.39a104.88,104.88,0,0,1-6.89,8.42c-4.21,4.73-5.36,7.53-5.36,7.53s2.93.77,3.44,3.07,1.41,1.53-.12,4.72-3.71,8-5.24,9.83-1.91,1.41-3.06,3.83-.26,1-1.15,5.75-2.3,9.83-2.3,9.83-19,8.68-25.28,7.53-7.4-19.53-7.78-21.32,3.7-16.47-4.6-25.53A65.25,65.25,0,0,0,190.06,167.49Z" style="fill:#cce9ff;"/><path d="M106.61,167.91S98.44,153.66,93,153.3s-25.7-1.39-31.49-1.39H43.81a40,40,0,0,0-9.88,1.39s-4.08-2.07-4.59,1.85-2.56,3.06,0,6.8S31,169.1,33.08,173s6.13,8.34,6.13,10.21-.34,2.72-.34,5.45-2.21,1.19,1.53,6a63.87,63.87,0,0,0,4.94,6c2.72,3.07,2.89,8.85,2.89,8.85s-.68.34,1.7,4.43,2.56,5.28,5.79,7,3.41,1.53,6.3,3.06,2.89,2.38,6.3,2.9a43.13,43.13,0,0,0,7,.51c1.36,0,2.72,1,3.91,0s1.87-1.2,2-2.22.17-1.53.68-4.59.68-32.34,4.26-37.62,21.62-14.47,21.62-14.47Z" style="fill:#cce9ff;"/><path d="M151.13,182.64s15-12,15.06-14-1.19-9.78,1.11-11,6.46-3.57,6.46-3.57,15.32-17,17.37-24.17,9.7-7.79,10.8-8.54,2.64.62,4.68-2.35,4.43-.94,2.13-4.34-5.44-8-7.74-8.6-4.09.25-5.62-1.45.85-1.19-3.15-3.57-7.74-3.07-9.79-4.18a34.09,34.09,0,0,0-6.8-2.89c-2.64-.76-5.88-9-10-9.44s-8.54,3.49-17.59,5.36-9.39,2.72-17.39,2.81S119.47,94.29,114.36,94s-9-1.19-9.87-1.27.93,12.17-5,13.1a41.48,41.48,0,0,0-7.83,1.71s-2.47.25-2.81,4-.26,5.7,1.36,7,1.11,1.61,5.11,2.21,5.27.68,6.29.93a3.16,3.16,0,0,1,2.3,1.58c.94,1.23,5.19,23.45,12.94,27.87s11.32,5.11,12.85,7.23S132.4,160,133,163.4s.25,3.07,1.53,6.13a19.35,19.35,0,0,0,5.87,7.91c2.9,2.39,4.34,4.43,6,4.85A23,23,0,0,0,151.13,182.64Z" style="fill:#ffe3ca;"/><path d="M267.41,150H206a20.51,20.51,0,0,0-20.06,16.38H169.13v-4.5a48.73,48.73,0,0,0,28-36.45h4.8a12.29,12.29,0,0,0,0-24.57h-4.1V88.57a28.7,28.7,0,0,0-28.66-28.66H128.18A28.7,28.7,0,0,0,99.51,88.57v12.29H95.42a12.29,12.29,0,1,0,0,24.57h4.79a48.72,48.72,0,0,0,28,36.45v4.5H111.39A20.51,20.51,0,0,0,91.32,150H29.89a4.09,4.09,0,0,0-4.09,4.1v8.19a28.57,28.57,0,0,0,8.19,20v.45a28.55,28.55,0,0,0,8.19,20v.46A28.7,28.7,0,0,0,70.85,231.9H79v36.86a4.09,4.09,0,0,0,4.09,4.09h131a4.09,4.09,0,0,0,4.1-4.09V231.9h8.19a28.71,28.71,0,0,0,28.67-28.66v-.46a28.55,28.55,0,0,0,8.19-20v-.45a28.57,28.57,0,0,0,8.19-20V154.1a4.1,4.1,0,0,0-4.1-4.1Zm-69.62-40.95h4.1a4.1,4.1,0,0,1,0,8.19h-4.1Zm-98.28,8.19H95.42a4.1,4.1,0,1,1,0-8.19h4.09Zm81.9,57.33L164.59,197l-10.15-10.14,12.29-12.29ZM128.18,68.1h40.95A20.49,20.49,0,0,1,189.6,88.57v4.1H188A23.43,23.43,0,0,1,168.42,82.2a4.1,4.1,0,0,0-4.91-1.53,109.74,109.74,0,0,1-41,7.9H107.7A20.5,20.5,0,0,1,128.18,68.1ZM107.7,117.24V96.76h14.81a117.94,117.94,0,0,0,41.1-7.37A31.59,31.59,0,0,0,188,100.86h1.61v16.38a40.69,40.69,0,0,1-26.06,38.11,4.1,4.1,0,0,0-2.6,3.81v9.62l-12.29,12.29-12.28-12.29v-9.62a4.11,4.11,0,0,0-2.61-3.81,40.69,40.69,0,0,1-26.06-38.11Zm22.88,57.33,12.28,12.29L132.71,197l-16.82-22.43ZM79,223.71H70.85a20.44,20.44,0,0,1-19.53-14.63,28.53,28.53,0,0,0,11.33,2.35H79Zm0-28.66v8.19H62.65A20.43,20.43,0,0,1,43.13,188.6,28.53,28.53,0,0,0,54.46,191h24.9a29.55,29.55,0,0,0-.32,4.1Zm2.8-12.29H54.46A20.49,20.49,0,0,1,34,162.29v-4.1H91.32a12.26,12.26,0,0,1,11.66,8.6,28.72,28.72,0,0,0-21.14,16Zm128.24,81.9H87.23V195.05a20.43,20.43,0,0,1,18.57-20.29L129,205.69a4.05,4.05,0,0,0,3,1.64h.29a4.09,4.09,0,0,0,2.9-1.2l13.48-13.48,13.49,13.48a4.09,4.09,0,0,0,2.89,1.2h.29a4.06,4.06,0,0,0,3-1.64l23.19-30.93a20.44,20.44,0,0,1,18.58,20.29Zm16.38-41h-8.19V211.43h16.38A28.5,28.5,0,0,0,246,209.08a20.43,20.43,0,0,1-19.52,14.63Zm8.19-20.47H218.27v-8.19a28.1,28.1,0,0,0-.33-4.1h24.9a28.5,28.5,0,0,0,11.33-2.35,20.43,20.43,0,0,1-19.52,14.64Zm28.67-41a20.5,20.5,0,0,1-20.48,20.47H215.46a28.71,28.71,0,0,0-21.14-16,12.27,12.27,0,0,1,11.66-8.6h57.34Zm0,0" style="fill:#0b4870;"/><path d="M132.27,121.33h8.19v-4.09a12.29,12.29,0,1,0-24.57,0v4.09h8.19v-4.09a4.1,4.1,0,1,1,8.19,0Zm0,0" style="fill:#0b4870;"/><path d="M165,117.24a4.1,4.1,0,1,1,8.19,0v4.09h8.19v-4.09a12.29,12.29,0,1,0-24.57,0v4.09H165Zm0,0" style="fill:#0b4870;"/><path d="M148.65,150A16.38,16.38,0,0,0,165,133.62v-4.1h-8.19v4.1a8.19,8.19,0,0,1-16.38,0v-4.1h-8.19v4.1A16.38,16.38,0,0,0,148.65,150Zm0,0" style="fill:#0b4870;"/><path d="M111.8,39.43c0,11.69,30.71,12.29,36.85,12.29s36.86-.6,36.86-12.29S154.8,27.15,148.65,27.15s-36.85.59-36.85,12.28Zm36.85,4.1a71.56,71.56,0,0,1-27.55-4.1,71.36,71.36,0,0,1,27.55-4.09,71.31,71.31,0,0,1,27.55,4.09,71.5,71.5,0,0,1-27.55,4.1Zm0,0" style="fill:#0b4870;"/><path d="M148.65,219.62a4.1,4.1,0,0,1,4.1,4.09h8.19a12.29,12.29,0,0,0-8.19-11.53v-4.85h-8.19v4.85A12.26,12.26,0,0,0,148.65,236a4.1,4.1,0,1,1-4.09,4.09h-8.19a12.28,12.28,0,0,0,8.19,11.53v4.85h8.19v-4.85a12.25,12.25,0,0,0-4.1-23.81,4.1,4.1,0,0,1,0-8.19Zm0,0" style="fill:#0b4870;"/></g></svg>